<svg xmlns="http://www.w3.org/2000/svg" fill="none" viewBox="0 0 726 1538">
  <mask id="b" width="1298" height="1770" x="-579" y="-232" maskUnits="userSpaceOnUse" style="mask-type:alpha">
    <path fill="url(#a)" d="M-578.9-98C-61.7-159.5 502.9-226.5 528.4-231.3l189.9 1635.8-1107.4 133.3L-578.9-98Z"/>
  </mask>
  <g mask="url(#b)">
    <path fill="#5C00F3" d="M477.2 494.6C491 609.3 384 720 277.7 732.7 171.4 745.5 26.3 716 11.5 593c-7.3-61-87.3-126.4-43-205.2 45-80.2 192-80.9 245.6-87.4 106.3-12.7 249.3 79.7 263 194.3Z"/>
    <g filter="url(#c)">
      <path fill="#5C00F3" d="M467.9 494.3c14.8 123-66.7 222-149.2 232-82.5 10-196.4-23.4-211.2-146.4-7.3-61-73.5-128-41.1-205.3 33-78.7 147.5-75.5 189.1-80.5C338 284 453.1 371.4 468 494.3Z"/>
    </g>
    <g filter="url(#d)">
      <path fill="#5C00F3" d="M468.3 498c16.6 137.9-85.2 250.2-187 262.4-102 12.3-242-23.6-258.5-161.4-8.2-68.3-98.5-141.6-57.5-228.8 41.7-88.8 191.6-87.8 243-94 101.9-12.2 243.5 84 260 221.9Z"/>
    </g>
    <g filter="url(#e)">
      <path fill="#5C00F3" d="M437 518c-7.2 173.5-136.3 332-268.1 348C37 881.7-116 812.5-135.8 647.3c-9.8-82-166.2-170-112.2-275.1C-193.1 265 48.8 245.9 115.3 237.9 247.2 222 445.3 317.1 437 518Z"/>
    </g>
    <g filter="url(#f)">
      <path fill="#5C00F3" d="M409 566.6c21.3 178-128.5 364.3-257.4 379.8C22.6 962-128 885.7-149.3 707.8c-10.6-88.2-72.7-189.4-21-301.9C-118 291.4 143 207.3 208 199.4 337.1 184 387.5 388.7 409 566.6Z"/>
    </g>
    <g filter="url(#g)">
      <path fill="#5C00F3" d="M367.3 654.8c22.2 183.9-132.5 363.1-264.3 379-131.9 15.8-286-63.1-308-247C-216 695.7-54 538-1.5 422 52 303.7 234.9 307 301.4 299c131.9-15.8 43.8 171.8 66 355.7Z"/>
    </g>
    <g filter="url(#h)">
      <path fill="#5C00F3" d="M371.7 514C391 674.7 234 834.2 102 850c-131.8 16-284.4-51-303.8-212-9.6-79.7-56.3-172.3-2-274.9C-148.6 258.7 33.8 259 100.3 251c131.8-15.9 251.9 102 271.3 263Z"/>
    </g>
  </g>
  <g filter="url(#i)">
    <path fill="#965DFF" d="M293.4 291h-27.7L224 368.7 136.8 291 39.6 532l152 170h143l27.7-65.8h45.9V597l-96.6-116.7V323.6L293.4 291Z"/>
  </g>
  <defs>
    <filter id="c" width="427.5" height="450" x="49.8" y="285.6" color-interpolation-filters="sRGB" filterUnits="userSpaceOnUse">
      <feFlood flood-opacity="0" result="BackgroundImageFix"/>
      <feBlend in="SourceGraphic" in2="BackgroundImageFix" result="shape"/>
      <feGaussianBlur result="effect1_foregroundBlur_241_11929" stdDeviation="3.8"/>
    </filter>
    <filter id="d" width="569.2" height="541.2" x="-72.2" y="248.3" color-interpolation-filters="sRGB" filterUnits="userSpaceOnUse">
      <feFlood flood-opacity="0" result="BackgroundImageFix"/>
      <feBlend in="SourceGraphic" in2="BackgroundImageFix" result="shape"/>
      <feGaussianBlur result="effect1_foregroundBlur_241_11929" stdDeviation="13.4"/>
    </filter>
    <filter id="e" width="773.3" height="708.6" x="-297.7" y="197.8" color-interpolation-filters="sRGB" filterUnits="userSpaceOnUse">
      <feFlood flood-opacity="0" result="BackgroundImageFix"/>
      <feBlend in="SourceGraphic" in2="BackgroundImageFix" result="shape"/>
      <feGaussianBlur result="effect1_foregroundBlur_241_11929" stdDeviation="19.2"/>
    </filter>
    <filter id="f" width="808.9" height="957.1" x="-294.3" y="95" color-interpolation-filters="sRGB" filterUnits="userSpaceOnUse">
      <feFlood flood-opacity="0" result="BackgroundImageFix"/>
      <feBlend in="SourceGraphic" in2="BackgroundImageFix" result="shape"/>
      <feGaussianBlur result="effect1_foregroundBlur_241_11929" stdDeviation="51.8"/>
    </filter>
    <filter id="g" width="1095.9" height="1251.9" x="-462.8" y="41" color-interpolation-filters="sRGB" filterUnits="userSpaceOnUse">
      <feFlood flood-opacity="0" result="BackgroundImageFix"/>
      <feBlend in="SourceGraphic" in2="BackgroundImageFix" result="shape"/>
      <feGaussianBlur result="effect1_foregroundBlur_241_11929" stdDeviation="128.6"/>
    </filter>
    <filter id="h" width="840.8" height="840.8" x="-348.5" y="130.6" color-interpolation-filters="sRGB" filterUnits="userSpaceOnUse">
      <feFlood flood-opacity="0" result="BackgroundImageFix"/>
      <feBlend in="SourceGraphic" in2="BackgroundImageFix" result="shape"/>
      <feGaussianBlur result="effect1_foregroundBlur_241_11929" stdDeviation="59.5"/>
    </filter>
    <filter id="i" width="721.8" height="764.2" x="-137" y="114.4" color-interpolation-filters="sRGB" filterUnits="userSpaceOnUse">
      <feFlood flood-opacity="0" result="BackgroundImageFix"/>
      <feBlend in="SourceGraphic" in2="BackgroundImageFix" result="shape"/>
      <feGaussianBlur result="effect1_foregroundBlur_241_11929" stdDeviation="88.3"/>
    </filter>
    <linearGradient id="a" x1="297.6" x2="-389.9" y1="463.9" y2="474.4" gradientUnits="userSpaceOnUse">
      <stop stop-color="#C4C4C4"/>
      <stop offset="1" stop-color="#C4C4C4" stop-opacity="0"/>
    </linearGradient>
  </defs>
</svg>